<svg xmlns="http://www.w3.org/2000/svg" width="35" height="34" viewBox="0 0 35 34">
  <g transform="translate(-265 -1359)">
    <rect width="35" height="34" transform="translate(265 1359)" fill="#061c42"/>
    <path d="M18.564-10.608q.1,0,.178.28a2.427,2.427,0,0,1,.076.637,2.729,2.729,0,0,1-.076.663q-.076.306-.178.306H11.118v7.446q0,.1-.357.178A3.647,3.647,0,0,1,10-1.02q-.816,0-.816-.153V-8.721H1.734q-.1,0-.178-.332a3.052,3.052,0,0,1-.077-.689,3.274,3.274,0,0,1,.051-.586q.051-.28.153-.28h7.5v-7.446q0-.1.306-.178a2.729,2.729,0,0,1,.663-.077,2.729,2.729,0,0,1,.663.077q.306.077.306.178v7.446Z" transform="translate(273 1386)" fill="#fff"/>
  </g>
</svg>
